<?xml version="1.0" encoding="UTF-8"?>
<!-- Generated by Pixelmator Pro 3.6.13 -->
<svg width="729" height="220" viewBox="0 0 729 220" xmlns="http://www.w3.org/2000/svg">
    <path id="Path" fill="#4d4d4d" stroke="none" d="M 20.902126 48.643692 L 42.505669 11.355286 L 129.505676 11.343933 L 150.992065 49.002747 L 151.018509 124.335472 L 129.509445 161.971603 L 42.535908 162.001831 L 20.682915 124.339249 Z"/>
    <path id="path1" fill="#ededed" stroke="none" d="M 20.686695 124.327911 L 59.895088 124.327911 L 38.359573 86.378082 L 55.873718 48.651245 L 20.905905 48.643692 L -1 86.684219"/>
    <path id="path2" fill="#e0e0e0" stroke="none" d="M 71.785355 124.327911 L 100.445198 124.327911 L 125.786667 87.390991 L 100.887405 49.006516 L 67.174385 49.006516 L 46.867199 86.098404 Z"/>
    <path id="path3" fill="#acacac" stroke="none" d="M -1 86.68045 L 20.686695 124.339256 L 59.898872 124.339256 L 38.597683 86.808945 Z"/>
    <path id="path4" fill="#9e9e9e" stroke="none" d="M 47.279163 86.688004 L 71.789139 124.339249 L 100.445198 124.339249 L 125.389824 86.703125 Z"/>
    <path id="path5" fill="#00b8e3" stroke="none" d="M 56.984886 86.706909 L 49.588432 88.861206 L 42.490555 86.703125 L 71.46788 36.47374 L 78.716934 49.014084"/>
    <path id="path6" fill="#33c6e9" stroke="none" d="M 78.686699 124.327911 L 71.475441 136.921173 L 52.226513 116.183121 L 42.475437 86.714462 L 42.475437 86.699341 L 56.981106 86.699341"/>
    <path id="path7" fill="#008aaa" stroke="none" d="M 42.494335 86.703125 L 42.479214 86.703125 L 42.479214 86.714462 L 35.23394 99.26992 L 27.958427 86.771149 L 35.335987 73.973801 L 56.984886 36.481308 L 71.475441 36.481308"/>
    <path id="path8" fill="#d4d4d4" stroke="none" d="M 122.226387 124.327911 L 166.113785 124.327911 L 166.087326 49.002747 L 122.226387 49.002747 Z"/>
    <path id="path9" fill="#919191" stroke="none" d="M 122.226387 86.805161 L 122.226387 124.335472 L 166.034409 124.335472 L 166.034409 86.805161 Z"/>
    <path id="path10" fill="#00b8e3" stroke="none" d="M 71.482994 136.936279 L 56.981106 136.936279 L 35.23394 99.266136 L 42.479214 86.718246 Z"/>
    <path id="path11" fill="#008aaa" stroke="none" d="M 129.464111 86.703125 L 100.479218 136.924957 C 97.814682 133.009399 93.249062 124.339249 93.249062 124.339249 L 114.992447 86.695557 Z"/>
    <path id="path12" fill="#00b8e3" stroke="none" d="M 114.954651 136.924957 L 100.479218 136.921173 L 129.46788 86.699341 L 136.709381 74.159012 L 143.973557 86.782486 M 129.464111 86.703125 L 114.996223 86.703125 L 93.245285 49.0103 L 100.445198 36.485077 L 118.050056 58.867203 Z"/>
    <path id="path13" fill="#33c6e9" stroke="none" d="M 136.709381 74.151443 L 136.709381 74.162781 L 129.464111 86.703125 L 100.448982 36.488861 L 114.965996 36.496414 Z"/>
    <path id="path14" fill="#626262" stroke="none" d="M 664.083862 49.063217 C 663.887085 49.061157 663.697876 49.138657 663.559082 49.278137 C 663.420288 49.417633 663.34375 49.607254 663.346802 49.803986 L 663.346802 123.515327 C 663.346802 123.915947 663.671875 124.252327 664.083862 124.252327 L 679.386963 124.252327 C 679.787598 124.252327 680.124023 123.91217 680.124023 123.515327 L 680.124023 103.223259 C 680.124023 103.0494 680.184448 102.871765 680.312988 102.731926 L 680.99707 101.960915 L 687.044189 95.225868 C 687.193726 95.062912 687.408325 94.975311 687.62915 94.987022 C 687.850037 94.998718 688.054138 95.108505 688.185608 95.286339 L 693.960693 103.072083 L 704.297546 116.980598 L 708.084595 122.071564 L 709.47168 123.949966 C 709.622864 124.138939 709.834534 124.252327 710.072632 124.252327 L 727.836182 124.252327 C 728.113342 124.247231 728.365417 124.090874 728.493164 123.844887 C 728.620911 123.598892 728.60376 123.302727 728.448486 123.073128 L 724.771057 117.948135 L 719.521362 110.563026 C 717.960449 108.38604 716.286072 106.035202 714.483337 103.510498 L 713.670715 102.361542 L 707.018799 92.988411 C 704.585938 89.576721 702.149414 86.167633 699.70929 82.761124 C 699.509033 82.482101 699.534424 82.100357 699.769775 81.850266 L 705.631714 75.334427 L 719.710327 59.687347 L 728.172607 50.287766 C 728.28241 50.156235 728.34845 49.993729 728.361572 49.822891 C 728.367737 49.622864 728.292236 49.42894 728.152588 49.285675 C 728.012878 49.142395 727.820923 49.062088 727.620789 49.063217 L 708.836731 49.063217 C 708.631836 49.06279 708.435974 49.147705 708.296265 49.297546 L 702.407837 55.699997 L 689.844788 69.359055 L 681.397644 78.535645 C 681.19342 78.761902 680.870544 78.838211 680.58667 78.727341 C 680.302795 78.61647 680.117004 78.341537 680.120178 78.036758 L 680.120178 49.800217 C 680.120178 49.393173 679.790283 49.063217 679.38324 49.063217 Z"/>
    <path id="path15" fill="#6f6f6f" stroke="none" d="M 609.621399 49.063217 C 609.327576 49.069153 609.064392 49.246582 608.948669 49.516754 L 589.246216 95.116264 L 589.234863 95.127602 L 589.208435 95.176735 L 589.197083 95.214531 L 586.649719 101.129425 L 586.498535 101.492256 L 586.169678 102.229256 L 586.173523 102.229256 L 585.897583 102.856651 L 585.897583 102.867989 L 578.236572 120.605118 L 577.110291 123.212967 C 577.009766 123.441208 577.030823 123.70472 577.166382 123.914093 C 577.301819 124.123451 577.53363 124.25058 577.78302 124.252327 L 594.034851 124.252327 C 594.318115 124.249298 594.57489 124.084984 594.696289 123.829018 C 594.696289 123.813904 594.711365 123.813904 594.711365 123.802559 L 600.373047 110.631058 L 601.310364 108.454071 C 601.429077 108.179573 601.699097 108.001503 601.99823 108.000526 L 632.536438 108.000526 C 632.832825 107.998405 633.100037 108.178551 633.209167 108.454071 L 639.49823 123.065567 L 646.546997 98.052917 L 640.881531 84.938095 L 635.820862 73.229248 L 625.570862 49.520538 C 625.460327 49.244415 625.191711 49.064377 624.894348 49.066986 L 615.347351 49.066986 Z M 639.49823 123.065567 L 639.49823 123.076904 L 639.823303 123.802559 C 639.936646 124.078468 640.197449 124.256104 640.496094 124.256104 L 656.747864 124.256104 C 656.998169 124.254242 657.230835 124.126724 657.367004 123.91671 C 657.503235 123.706688 657.52478 123.442276 657.424438 123.212967 L 657.273193 122.872818 L 646.546997 98.052917 Z M 617.312683 72.564056 C 617.592407 72.564056 617.868286 72.71524 617.996765 73.006271 L 621.560791 81.321136 L 625.158936 89.730484 L 626.236023 92.240074 C 626.335999 92.467636 626.313843 92.730339 626.177185 92.937965 C 626.040588 93.145584 625.808044 93.269852 625.55957 93.268097 L 608.971375 93.268097 C 608.723511 93.26857 608.492188 93.143784 608.356445 92.936371 C 608.220703 92.728966 608.198975 92.467026 608.298645 92.240074 L 610.24884 87.742477 L 616.636169 73.002472 C 616.755249 72.733765 617.022522 72.561478 617.316467 72.564056 Z"/>
    <path id="path16" fill="#7d7d7d" stroke="none" d="M 541.174927 47.339783 C 538.053101 47.339783 535.063538 47.627014 532.225098 48.227951 L 532.225098 48.243073 L 532.225098 48.227951 L 532.213745 48.227951 C 527.40509 49.192383 522.836426 51.104141 518.773865 53.851837 C 516.750793 55.218094 514.856995 56.766571 513.116028 58.477921 C 507.499725 63.969513 503.939453 70.560944 502.476746 78.040543 L 502.469208 78.05188 L 502.416321 78.339127 L 502.3974 78.426056 L 502.238647 79.276443 L 502.238647 79.272659 L 502.227325 79.318008 L 502.227325 79.340683 L 502.189514 79.661942 L 502.189514 79.695953 C 501.866272 81.841324 501.707031 84.008209 501.713318 86.17778 C 501.713318 96.117828 504.797363 104.591438 510.973053 111.602386 C 511.63446 112.380959 512.360107 113.129295 513.108459 113.866295 C 515.020874 115.740921 517.050476 117.381218 519.185913 118.779633 C 525.5354 122.929512 532.863892 125.004448 541.174927 125.004448 C 542.100952 125.004448 543.01178 124.981766 543.911255 124.917519 C 551.961609 124.463982 559.03302 121.954407 565.133118 117.392563 C 566.584229 116.312859 567.959473 115.134666 569.248962 113.866295 L 569.286743 113.828499 C 572.220398 110.988831 574.673706 107.691833 576.550903 104.066093 C 577.110291 102.9776 577.609192 101.866432 578.047546 100.713684 C 579.786194 96.276566 580.647888 91.42749 580.647888 86.181564 C 580.647888 84.768036 580.587463 83.377182 580.458862 82.024124 L 580.458862 82.00145 C 580.117798 77.96077 579.118103 74.003082 577.499573 70.285034 C 575.609863 65.938629 572.862122 62.004181 569.248962 58.477921 C 567.748535 57.003922 566.172424 55.681107 564.524597 54.501907 C 557.872681 49.728409 550.098328 47.339783 541.174927 47.339783 Z M 541.239136 61.977722 C 547.513123 61.977722 552.800659 64.339905 557.101685 69.06427 C 557.335999 69.31749 557.562744 69.578278 557.763123 69.839066 C 561.625732 74.427353 563.549438 79.892487 563.549438 86.226913 C 563.549438 90.648911 562.612122 94.628708 560.737549 98.17765 C 559.602722 100.327469 558.153076 102.295639 556.436523 104.01696 C 554.909363 105.597855 553.147583 106.933846 551.213257 107.977859 C 548.227417 109.576576 544.901489 110.377831 541.235413 110.377831 C 537.87793 110.414276 534.560547 109.647118 531.559937 108.140373 C 530.033203 107.350403 528.611206 106.372757 527.326843 105.230171 C 526.637146 104.638489 525.985718 104.00351 525.376709 103.329086 C 521.068054 98.631187 518.913757 92.931717 518.913757 86.230698 C 518.913757 86.03038 518.913757 85.841415 518.92511 85.641098 C 519.038452 79.189514 521.189026 73.667679 525.376709 69.06427 C 528.513672 65.617371 532.187317 63.41394 536.386292 62.487961 C 537.981018 62.144699 539.607971 61.973648 541.239136 61.977722 Z"/>
    <path id="path17" fill="#888888" stroke="none" d="M 453.490845 49.063217 C 453.294098 49.061157 453.104858 49.138657 452.966095 49.278137 C 452.827301 49.417633 452.750793 49.607254 452.753845 49.803986 L 452.753845 123.515327 C 452.753845 123.915947 453.078857 124.252327 453.490845 124.252327 L 500.84024 124.252327 C 501.255981 124.252327 501.581024 123.91217 501.581024 123.515327 L 501.581024 110.022552 C 501.580048 109.827095 501.501434 109.64003 501.362518 109.502525 C 501.223572 109.365021 501.035675 109.28833 500.84024 109.289337 L 470.264221 109.289337 C 470.071106 109.291351 469.885132 109.216309 469.747498 109.080818 C 469.609924 108.945328 469.531982 108.760574 469.530975 108.567459 L 469.530975 49.803986 C 469.534454 49.5168 469.366486 49.255173 469.103912 49.138809 C 469.007233 49.087952 468.899414 49.061966 468.790222 49.063217 L 460.316589 49.063217 Z"/>
    <path id="path18" fill="#949494" stroke="none" d="M 413.957397 47.343552 C 402.909973 47.343552 393.570862 51.081467 385.932495 58.530838 C 384.545441 59.891449 383.286865 61.320099 382.145477 62.801651 L 382.145477 62.816772 C 377.035614 69.453552 374.484436 77.330002 374.484436 86.438568 C 374.484436 91.642914 375.297058 96.416412 376.937347 100.777939 L 376.959991 100.770378 L 376.941132 100.781715 C 377.901093 103.408455 379.178558 105.831108 380.716827 108.144157 L 380.716827 108.155495 C 380.728149 108.155495 380.728149 108.166832 380.728149 108.166832 C 382.181061 110.327087 383.856995 112.328613 385.728424 114.13842 C 387.979858 116.348488 390.498932 118.26825 393.226929 119.853004 L 393.238251 119.853004 C 394.404816 120.527634 395.607208 121.13829 396.840118 121.682281 L 396.866547 121.682281 L 396.87793 121.693619 L 396.889252 121.693619 C 402.067169 123.968864 407.876221 125.106491 414.339111 125.106491 C 416.240234 125.106491 418.103516 124.966652 419.913849 124.705864 L 419.95166 124.705864 C 421.115753 124.54335 422.264709 124.320358 423.402344 124.044456 C 429.763214 122.517548 435.591187 119.29364 440.901367 114.380302 L 440.901367 114.372749 L 440.905151 114.380302 C 441.967194 113.405197 443.017883 112.339386 444.042114 111.216873 C 444.300812 110.92189 444.289307 110.4776 444.015686 110.196419 L 434.317505 100.20723 C 434.151215 100.030067 433.906616 99.949013 433.66745 99.991806 C 433.496277 100.029663 433.342285 100.122597 433.229004 100.256363 C 430.640076 103.317749 427.692078 105.619461 424.392578 107.142593 C 421.115753 108.654388 417.491211 109.410286 413.530334 109.410286 C 410.81665 109.410286 408.276855 108.9832 405.929779 108.121483 C 402.997925 107.024521 400.343628 105.29541 398.155365 103.056969 C 395.946503 100.860535 394.266327 98.190338 393.242035 95.24855 L 393.215576 95.24855 L 393.242035 95.244766 C 392.278259 92.542427 391.805847 89.545303 391.805847 86.230698 C 391.805847 79.718643 393.740936 74.446243 397.641357 70.421097 C 397.928619 70.133865 398.215851 69.842834 398.529541 69.551819 C 403.004456 65.432175 408.40155 63.368576 414.717072 63.368576 C 417.026337 63.368576 419.24115 63.655823 421.331177 64.234085 L 421.331177 64.230301 C 426.131134 65.530441 430.341492 68.331039 433.966003 72.605637 C 434.253265 72.945801 434.778595 72.968475 435.062073 72.632095 L 444.503235 61.928589 C 444.749023 61.639801 444.744202 61.213943 444.491882 60.930817 C 437.102997 52.816254 428.153137 48.330002 417.657532 47.490952 C 416.440521 47.396469 415.215973 47.339783 413.964966 47.339783 Z"/>
    <path id="path19" fill="#aaaaaa" stroke="none" d="M 311.140228 49.063217 C 310.879089 49.063614 310.637634 49.202194 310.505554 49.42749 C 310.373474 49.652802 310.370514 49.931183 310.497742 50.159271 L 317.648529 62.665588 L 330.585724 85.278259 L 335.801392 94.386826 C 335.864807 94.49868 335.898621 94.624855 335.899658 94.753433 L 335.899658 123.515327 C 335.899658 123.915947 336.224701 124.252327 336.636658 124.252327 L 351.939819 124.252327 C 352.351776 124.252327 352.673035 123.91217 352.673035 123.515327 L 352.673035 94.753433 C 352.673035 94.628708 352.710815 94.50399 352.775055 94.390602 L 356.463867 87.942795 L 370.463074 63.466843 L 373.324158 58.477921 L 375.22522 55.151962 L 375.198792 55.151962 L 375.22522 55.140625 L 378.074951 50.166824 C 378.20401 49.940216 378.202972 49.662094 378.072266 49.436447 C 377.941528 49.2108 377.700775 49.071548 377.440002 49.07077 L 360.950104 49.07077 C 360.690125 49.07074 360.449127 49.207001 360.315155 49.429825 L 345.374847 75.141663 L 345.363495 75.153015 L 345.363495 75.164352 L 344.562256 75.753952 L 343.961334 76.215042 C 343.83316 76.150192 343.725769 76.050674 343.651398 75.927795 L 343.398163 75.504501 L 343.024017 74.861984 L 328.265106 49.426041 C 328.130432 49.202072 327.887726 49.065628 327.626373 49.066986 Z M 369.862122 56.773361 L 369.862122 56.78093 L 369.847015 56.788483 Z"/>
    <path id="path20" fill="#bcbcbc" stroke="none" d="M 250.706253 49.063217 C 250.50885 49.06012 250.318619 49.137177 250.179031 49.276779 C 250.039444 49.416367 249.962387 49.606598 249.965485 49.803986 L 249.965485 123.515327 C 249.965485 123.915947 250.290512 124.252327 250.702484 124.252327 L 304.613068 124.252327 C 305.028809 124.252327 305.353851 123.91217 305.353851 123.515327 L 305.353851 110.135941 C 305.349701 109.729774 305.019287 109.402695 304.613068 109.402718 L 267.479645 109.402718 C 267.283508 109.403732 267.095062 109.326523 266.956055 109.188202 C 266.816986 109.049881 266.738831 108.861847 266.738831 108.665718 L 266.738831 94.541786 C 266.738831 94.141151 267.07901 93.801003 267.479645 93.801003 L 299.677063 93.801003 C 300.082642 93.80101 300.411987 93.473335 300.414063 93.06778 L 300.414063 80.240204 C 300.414063 79.824448 300.073914 79.503204 299.677063 79.503204 L 267.475861 79.503204 C 267.069641 79.501129 266.740906 79.172379 266.738831 78.766205 L 266.738831 64.748077 C 266.738831 64.332336 267.07901 64.011078 267.479645 64.011078 L 303.441437 64.011078 C 303.84848 64.011078 304.178436 63.681122 304.178436 63.274078 L 304.178436 49.800217 C 304.178436 49.393173 303.84848 49.063217 303.441437 49.063217 L 273.851837 49.063217 Z"/>
    <path id="path21" fill="#b8b8b8" stroke="none" d="M 177.603424 49.063217 C 177.406677 49.061157 177.217438 49.138657 177.078674 49.278137 C 176.939896 49.417633 176.863358 49.607254 176.866425 49.803986 L 176.866425 123.515327 C 176.866425 123.915947 177.191452 124.252327 177.603424 124.252327 L 192.902786 124.252327 C 193.318542 124.252327 193.64357 123.91217 193.64357 123.515327 L 193.64357 103.223259 C 193.64357 103.0494 193.704041 102.871765 193.832535 102.731926 L 197.014862 99.171654 L 200.567596 95.225868 C 200.717087 95.065674 200.92981 94.979881 201.148621 94.991554 C 201.367416 95.003227 201.569824 95.111153 201.701431 95.286339 L 212.314224 109.561455 L 212.321793 109.569023 L 219.941238 119.822762 L 223.002625 123.942406 C 223.138138 124.133255 223.358154 124.246094 223.592224 124.244766 L 241.367142 124.244766 C 241.642517 124.240089 241.892807 124.083786 242.017868 123.838417 C 242.142929 123.593048 242.122299 123.298691 241.964325 123.073128 L 241.318008 122.162262 C 238.984909 118.908424 236.659256 115.649239 234.34108 112.384735 C 232.201889 109.398941 229.828384 106.061661 227.205414 102.361542 L 226.940857 101.983589 L 226.940857 101.991142 L 226.940857 101.983589 C 222.38295 95.567009 217.812271 89.1595 213.228867 82.761124 C 213.036972 82.479202 213.063538 82.102448 213.293121 81.850266 L 219.990372 74.412231 L 219.967697 74.412231 L 219.990372 74.408447 L 219.990372 74.39711 L 225.504639 68.274338 L 230.803482 62.38591 L 241.6884 50.283997 C 241.883026 50.068405 241.932083 49.75824 241.813431 49.493134 C 241.694763 49.228012 241.430817 49.057938 241.140381 49.059433 L 222.367661 49.059433 C 222.15834 49.057281 221.957901 49.143768 221.815857 49.297546 L 210.178818 61.939926 L 194.917267 78.531876 C 194.713028 78.758118 194.390137 78.834442 194.106247 78.723572 C 193.822327 78.612686 193.636627 78.337753 193.639786 78.032974 L 193.639786 49.781311 C 193.638794 49.587189 193.560471 49.401474 193.422134 49.265274 C 193.283798 49.129089 193.096893 49.053635 192.902786 49.055649 L 184.92807 49.055649 Z M 177.947357 86.189102 L 177.947357 86.226898 L 177.943588 86.226898 Z M 224.321655 117.71003 L 224.321655 117.71759 L 224.317886 117.71759 Z"/>
    <path id="path22" fill="#a0a0a0" stroke="none" d="M 336.213379 123.995323 C 336.12265 123.900833 336.043304 117.230042 336.043304 109.179733 L 336.043304 94.530441 L 323.268616 72.216354 C 315.724762 59.037292 310.554413 49.747314 310.637573 49.528091 C 310.758514 49.210617 311.986847 49.157715 319.247253 49.157715 C 327.002777 49.157715 327.751099 49.195511 328.098785 49.592346 C 328.306671 49.834244 331.825378 55.824722 335.918549 62.907486 C 340.007965 69.986465 343.488892 75.920258 343.647614 76.090332 C 344.380859 76.884018 345.3862 75.40625 353.020752 62.249847 L 360.617523 49.153931 L 369.215851 49.153931 C 376.374176 49.153931 377.833069 49.214401 377.946472 49.509201 C 378.022034 49.698181 372.364166 59.853653 365.375885 72.068954 L 352.66925 94.277222 L 352.4198 124.029343 L 344.403503 124.097366 C 339.992859 124.135162 336.307861 124.086029 336.213379 123.991547 Z"/>
    <path id="path23" fill="#acacac" stroke="none" d="M 250.169571 123.847923 C 250.105331 123.677841 250.082642 106.828888 250.116669 86.412094 L 250.180908 49.286209 L 303.925201 49.286209 L 303.925201 63.788101 L 285.575806 63.852341 C 272.525238 63.897705 267.131897 63.995972 266.890015 64.192505 C 266.398682 64.604462 266.398682 78.970291 266.890015 79.378479 C 267.128143 79.575012 272.037659 79.677063 283.701202 79.718628 L 300.179749 79.786652 L 300.179749 93.536438 L 283.701202 93.600685 C 272.037659 93.646042 267.128143 93.748085 266.890015 93.940842 C 266.625458 94.16761 266.55365 95.698303 266.55365 101.424225 C 266.55365 105.381348 266.621674 108.794228 266.704834 109.017212 C 266.840881 109.37249 268.73819 109.410278 285.59848 109.410278 C 298.03299 109.410278 304.495911 109.497208 304.820953 109.671066 C 305.282043 109.916725 305.304718 110.260666 305.304718 116.746269 C 305.304718 121.712509 305.221588 123.643822 305.00235 123.863037 C 304.556396 124.309013 250.339645 124.297676 250.169571 123.8517 Z"/>
    <g id="zedwerks-logo-v2">
        <path id="Rounded-Rectangle" fill="#8d352b" fill-rule="evenodd" stroke="none" d="M 637.857117 209.108841 C 637.857117 213.46701 641.390137 217 645.748291 217 L 721.108826 217 C 725.467041 217 729 213.46701 729 209.108841 L 729 137.891159 C 729 133.53299 725.467041 130 721.108826 130 L 645.748291 130 C 641.390137 130 637.857117 133.53299 637.857117 137.891159 Z"/>
        <path id="zed" fill="#ffffff" fill-rule="evenodd" stroke="none" d="M 695.368225 173.967957 C 695.368225 171.585342 695.85022 169.415359 696.81427 167.457947 C 697.778259 165.500549 699.106445 163.938141 700.798828 162.770706 C 702.49115 161.603271 704.42865 161.019562 706.611328 161.019562 C 708.533936 161.019562 710.266907 161.512146 711.810303 162.497314 C 713.353699 163.482483 714.550354 164.702362 715.400269 166.156998 L 715.400269 151.570465 L 720.651794 151.570465 L 720.651794 180.515259 C 720.651794 181.100082 720.760315 181.522049 720.977417 181.781143 C 721.194519 182.040253 721.558899 182.189194 722.070618 182.227982 L 722.070618 186.421768 C 721.110291 186.590363 720.348938 186.674652 719.786499 186.674652 C 718.808289 186.674652 717.979675 186.388199 717.300598 185.815308 C 716.621521 185.242401 716.254639 184.554382 716.19989 183.751236 L 716.158875 181.907959 C 715.199585 183.485428 713.912903 184.711639 712.298889 185.58667 C 710.684875 186.461685 709.000671 186.899185 707.246155 186.899185 C 705.527466 186.899185 703.944031 186.562134 702.49585 185.888031 C 701.047729 185.213928 699.790527 184.27739 698.724304 183.078369 C 697.658081 181.879364 696.832153 180.501205 696.246582 178.943878 C 695.661011 177.386566 695.368225 175.727936 695.368225 173.967957 Z M 715.410706 177.46875 L 715.410706 170.884155 C 715.049133 169.877594 714.478271 168.971008 713.697937 168.164368 C 712.917664 167.357742 712.044189 166.714111 711.077393 166.233459 C 710.110657 165.752808 709.146606 165.512482 708.185303 165.512482 C 707.067871 165.512482 706.055847 165.749329 705.149231 166.223022 C 704.242676 166.696701 703.463989 167.331757 702.813293 168.128204 C 702.162537 168.924637 701.663391 169.831726 701.315735 170.849457 C 700.96814 171.867203 700.794312 172.9328 700.794312 174.04628 C 700.794312 175.191589 700.988525 176.26973 701.376953 177.280762 C 701.76532 178.291794 702.313354 179.184082 703.020996 179.957642 C 703.728699 180.731201 704.553345 181.332703 705.494995 181.762131 C 706.436646 182.191559 707.460754 182.406265 708.567261 182.406265 C 709.262512 182.406265 709.969666 182.281815 710.688782 182.032913 C 711.407837 181.783997 712.092163 181.437637 712.741638 180.993774 C 713.391113 180.549927 713.951721 180.023544 714.423401 179.414581 C 714.895081 178.805634 715.224182 178.157028 715.410706 177.46875 Z M 680.595581 186.899185 C 678.649109 186.899185 676.885193 186.557037 675.303711 185.872742 C 673.72229 185.188446 672.363281 184.251282 671.226685 183.061218 C 670.090088 181.871155 669.213074 180.499725 668.595703 178.946869 C 667.978271 177.394012 667.669556 175.749313 667.669556 174.012711 C 667.669556 171.643524 668.207275 169.479645 669.282715 167.520981 C 670.358154 165.562332 671.870544 163.989105 673.820007 162.8013 C 675.76947 161.613464 678.040405 161.019562 680.632874 161.019562 C 683.250244 161.019562 685.508728 161.618073 687.408447 162.815094 C 689.308167 164.012115 690.776917 165.578491 691.814819 167.514267 C 692.852722 169.450043 693.371643 171.542328 693.371643 173.791168 C 693.371643 174.143753 693.360229 174.491745 693.337341 174.835129 C 693.314453 175.178528 693.28363 175.453903 693.244812 175.661285 L 673.232178 175.661285 C 673.345581 177.126358 673.754517 178.412018 674.458923 179.51828 C 675.163391 180.624542 676.072693 181.485992 677.18689 182.102661 C 678.301147 182.71933 679.4953 183.027649 680.769409 183.027649 C 682.180786 183.027649 683.511292 182.680023 684.761047 181.984802 C 686.010742 181.289551 686.86615 180.369293 687.327148 179.223999 L 691.830505 180.483917 C 691.262085 181.720734 690.431091 182.823502 689.337524 183.792252 C 688.243896 184.761017 686.954163 185.521027 685.468201 186.072281 C 683.982239 186.62355 682.358032 186.899185 680.595581 186.899185 Z M 673.078552 172.203003 L 688.200623 172.203003 C 688.080322 170.751358 687.668518 169.47702 686.965332 168.379959 C 686.262146 167.282898 685.360291 166.425415 684.259766 165.80751 C 683.15918 165.189606 681.940063 164.880646 680.602295 164.880646 C 679.288879 164.880646 678.08197 165.189606 676.981384 165.80751 C 675.880859 166.425415 674.985352 167.282898 674.2948 168.379959 C 673.604309 169.47702 673.198853 170.751358 673.078552 172.203003 Z M 645.125671 183.134323 L 659.915894 165.194702 L 645.616516 165.194702 L 645.616516 161.459686 L 665.661987 161.459686 L 665.661987 164.747131 L 650.956116 182.686737 L 665.791809 182.686737 L 665.791809 186.421768 L 645.125671 186.421768 Z"/>
        <path id="werks" fill="#ffffff" fill-rule="evenodd" stroke="none" d="M 723.173767 204.176865 L 723.173767 201.560318 L 725.045959 201.560318 L 725.045959 204.176865 Z M 702.577759 195.405212 C 701.707275 195.415894 700.934814 195.613266 700.260315 195.997314 C 699.585815 196.381378 699.103455 196.920471 698.813171 197.614639 L 698.813171 204.176865 L 696.556641 204.176865 L 696.556641 193.449356 L 698.645874 193.449356 L 698.645874 195.838959 C 699.018127 195.103333 699.504944 194.513794 700.106262 194.070328 C 700.707581 193.626862 701.340393 193.383636 702.004883 193.340683 C 702.144409 193.340683 702.258423 193.340683 702.346741 193.340683 C 702.43512 193.340683 702.512146 193.347519 702.577759 193.361206 Z M 715.208679 203.936432 C 716.016357 204.233505 716.870544 204.38205 717.771423 204.38205 C 719.056274 204.38205 720.085388 204.090103 720.858704 203.506226 C 721.63208 202.922333 722.018738 202.111069 722.018738 201.072388 C 722.018738 200.418839 721.859802 199.90448 721.54187 199.529282 C 721.223999 199.154099 720.76825 198.845062 720.174744 198.602173 C 719.581299 198.359283 718.867798 198.117203 718.034302 197.8759 C 717.558777 197.726517 717.156677 197.590057 716.828064 197.466522 C 716.499512 197.342987 716.252502 197.193878 716.087097 197.019165 C 715.921692 196.844452 715.838928 196.608231 715.838928 196.310516 C 715.838928 195.959167 715.9375 195.686142 716.134521 195.49144 C 716.331543 195.296738 716.583618 195.160065 716.890625 195.081421 C 717.197632 195.002777 717.515137 194.963455 717.843201 194.963455 C 718.416199 194.963455 718.952026 195.065765 719.450745 195.270416 C 719.949463 195.475052 720.438904 195.794708 720.919128 196.229416 L 721.881226 194.734558 C 721.368896 194.232315 720.781799 193.860291 720.119812 193.618469 C 719.457825 193.376648 718.737488 193.255737 717.958923 193.255737 C 717.12738 193.255737 716.393005 193.387695 715.75592 193.651642 C 715.118835 193.915588 714.620972 194.293823 714.262329 194.786331 C 713.903748 195.278854 713.724426 195.872925 713.724426 196.568588 C 713.724426 197.144135 713.856567 197.61731 714.120789 197.988113 C 714.385071 198.358917 714.776917 198.668915 715.296387 198.918106 C 715.815796 199.167313 716.456604 199.410187 717.21875 199.646774 C 717.761597 199.795959 718.227478 199.930389 718.616455 200.050064 C 719.005432 200.169754 719.304138 200.313538 719.512634 200.481415 C 719.72113 200.649277 719.825317 200.902054 719.825317 201.239731 C 719.825317 201.707138 719.628174 202.058914 719.233887 202.295074 C 718.839539 202.531235 718.321838 202.649307 717.680664 202.649307 C 717.067322 202.649307 716.452087 202.526215 715.835083 202.280014 C 715.218079 202.033798 714.595947 201.638214 713.968689 201.093231 L 713.133911 202.608597 C 713.709473 203.196762 714.401062 203.639359 715.208679 203.936432 Z M 707.507019 199.23996 L 710.946472 204.176865 L 713.364563 204.176865 L 708.975891 197.958939 L 713.12384 193.465393 L 710.710205 193.465393 L 705.745728 198.640808 L 705.745728 189.199463 L 703.489197 189.199463 L 703.489197 204.176865 L 705.745728 204.176865 L 705.745728 200.922363 L 707.507019 199.23996 Z M 687.690125 203.940933 C 688.369751 204.235001 689.127808 204.38205 689.964294 204.38205 C 690.72168 204.38205 691.419678 204.263596 692.058289 204.026672 C 692.696899 203.789764 693.25116 203.46315 693.72113 203.046829 C 694.191101 202.630508 694.548218 202.156586 694.792542 201.625061 L 692.857178 201.083618 C 692.659058 201.575806 692.291443 201.971298 691.754395 202.270081 C 691.217285 202.568848 690.645508 202.718246 690.039001 202.718246 C 689.491455 202.718246 688.97821 202.585724 688.49939 202.320724 C 688.020569 202.05571 687.629761 201.685501 687.327026 201.210083 C 687.024292 200.734665 686.848572 200.182144 686.799866 199.552536 L 695.40033 199.552536 C 695.416992 199.463409 695.430237 199.345062 695.440063 199.197495 C 695.44989 199.049927 695.454834 198.900375 695.454834 198.74884 C 695.454834 197.782394 695.231812 196.88324 694.785767 196.051331 C 694.339722 195.219421 693.708557 194.54628 692.892151 194.03186 C 692.075684 193.517426 691.105103 193.260223 689.980286 193.260223 C 688.866211 193.260223 687.890259 193.515457 687.05249 194.025925 C 686.214661 194.536392 685.564697 195.212479 685.102539 196.054214 C 684.640381 196.89595 684.409302 197.825897 684.409302 198.844055 C 684.409302 199.590363 684.541992 200.29718 684.807312 200.964508 C 685.072632 201.631866 685.449524 202.221237 685.937988 202.732666 C 686.426453 203.244095 687.010498 203.646851 687.690125 203.940933 Z M 684.736755 193.449356 L 682.57666 193.449356 L 679.14325 201.989243 L 677.636536 198.023361 L 679.461304 193.465393 L 677.545166 193.465393 L 676.34845 196.817993 L 675.151733 193.465393 L 673.235657 193.465393 L 675.076416 198.023361 L 673.569702 201.989243 L 670.119934 193.449356 L 667.976257 193.449356 L 672.500244 204.176865 L 674.424988 204.176865 L 676.34845 199.333252 L 678.287964 204.176865 L 680.212708 204.176865 L 684.736755 193.449356 Z M 693.232605 198.06633 L 686.733826 198.06633 C 686.785522 197.442474 686.959778 196.894836 687.256531 196.42337 C 687.553284 195.951904 687.93811 195.583405 688.411072 195.317856 C 688.884033 195.052307 689.40271 194.91954 689.967163 194.91954 C 690.542053 194.91954 691.065979 195.052307 691.53894 195.317856 C 692.011902 195.583405 692.399475 195.951904 692.701721 196.42337 C 693.003906 196.894836 693.180847 197.442474 693.232605 198.06633 Z"/>
    </g>
    <text id="SMART-enabled-by" xml:space="preserve" x="302" y="188" font-family="Raleway" font-size="36" font-style="italic" font-weight="700" fill="#b8b8b8">SMART enabled by</text>
</svg>
